# xmcd
#
# Track frame offsets:
# 150
# 14766
# 28674
# 46994
# 62328
# 78819
# 94773
# 115245
# 133033
# 150657
# 166001
# 182873
# 197514
# 213804
# 227701
# 241645
# 257573
# 277808
# 296134
# 310681
# 326893
# 344311
#
# Disc length: 4778 seconds
#
#
# Revision: 0
# Processed by: cddbd v1.5.1PL0 Copyright (c) Steve Scherf et al.
# Submitted via: FreeRIP 2.90 
#
DISCID=2612a816
DTITLE=Forrozao do Milenio V13 - Forrozao dol  Milenio Vol.13
DYEAR=2004
DGENRE=Country
TTITLE0=Cara de Boi - Gino e Geno
TTITLE1=Resposta da Patricinha - Saborear
TTITLE2=Barquinho - Os Carreteiros
TTITLE3=Estoria de Corinha - Caviar com rapadura
TTITLE4=Quebra nenem - Kachamel
TTITLE5=Criola - Tremendoes
TTITLE6=pout porri - Carne Mijada
TTITLE7=Amor da minha Vida - Calcinha Preta
TTITLE8=Carta Branca -  banda Magnificos
TTITLE9=Forro dos Chifrudos - DJ Maluco
TTITLE10=Desordenadamente -  Chapahalls
TTITLE11=Dança das gatinhas - DJ Maluco
TTITLE12=Sol de Primavera - Gargantas de Ouro
TTITLE13=Segura a saia - Chaoahalls
TTITLE14=Mulher Chorona - Teodoro e Sampaio
TTITLE15=Nosso amor e ouro - ZEZE Di Carmargo
TTITLE16=Coracao aberto - Eduardo Costa
TTITLE17=Tentei te esquecer - Mato grosso
TTITLE18=Aconteceu comigo - Hanra - Delley e Dorivan
TTITLE19=Porta Retrato - Edson e Hudson
TTITLE20=Nos Bares da Cidade - Rick e Rener
TTITLE21=Azul - Edson e Hudson
EXTD=
EXTT0=
EXTT1=
EXTT2=
EXTT3=
EXTT4=
EXTT5=
EXTT6=
EXTT7=
EXTT8=
EXTT9=
EXTT10=
EXTT11=
EXTT12=
EXTT13=
EXTT14=
EXTT15=
EXTT16=
EXTT17=
EXTT18=
EXTT19=
EXTT20=
EXTT21=
PLAYORDER=
